#!OML:ASF F:\VICON\USERDATA\INSTALL\rory3\rory3.ASF
:FULLY-SPECIFIED
:DEGREES
10
root -0.6959256377354589 18.924880784078738 -22.66328827354733 4.062749215216411 3.9039221776625572 -5.545609610394952
lfemur -34.707990794711364 -1.7892569511696819 -16.929506073137034
ltibia 44.27830316411453
lfoot 1.19327902719312 -3.4791257531425748
ltoes -24.880985584159625
rfemur 11.850985858388501 6.352458307404566 33.18449301661928
rtibia 32.875409407685964
rfoot 27.640884949874923 -6.219499952618152
rtoes 18.25308997144747
lowerback 12.142918631391671 2.330860833828627 5.463089839836817
upperback -2.5488246167178272 4.153200297601817 1.9357693642637157
thorax -9.338186103908992 1.7586204373026444 -1.817851344562365
lowerneck -15.696828104807182 -5.273037680603236 -2.034390064369744
upperneck 16.62108231041558 -7.067168577886362 1.7022891512525646
head 7.851956663482834 -3.320826737894071 0.09258241253875055
lclavicle -1.7288341312233668e-15 1.783627650497342e-15
lhumerus -72.63078548288873 -2.3046490795122594 95.52940702216156
lradius 102.91200565901279
lwrist 34.72119629141592
lhand -23.848906477162778 0.43563715424125604
lfingers 7.12502
lthumb 2.6232634372125316 30.39920526194979
rclavicle -1.7288341312233668e-15 1.783627650497342e-15
rhumerus -43.87690663360107 16.965585515733828 -96.73280022916566
rradius 117.99398509868087
rwrist -9.070933886543006
rhand -16.08270286576112 46.09455968904815
rfingers 7.12502
rthumb 10.120297116633523 16.35795883519473
11
root -0.6770431047313245 18.97358001560664 -21.632288030383727 3.7213109843409633 4.53709052035705 -5.769179040569462
lfemur -32.93109217222677 -3.406733120298764 -16.515806808189794
ltibia 35.177006795604
lfoot 2.9542377665154587 -5.580852406891603
ltoes -23.8045868466832
rfemur 12.275085416457845 7.275096150181742 34.174691541715376
rtibia 36.671009132015314
rfoot 26.709785105328464 -5.8430405117245945
rtoes 21.893787488373057
lowerback 12.62481596116684 2.2361913813781933 5.862968593836286
upperback -2.4923751714908464 4.119070411753379 1.881009772662631
thorax -9.529263475874387 1.7107908600899528 -2.116510466131614
lowerneck -17.634516814226714 -5.398866713631174 -1.7667545070318647
upperneck 17.565176487494767 -7.28540740474827 1.6055199744153772
head 8.49898091437248 -3.382715956845664 -0.07674450531674659
lclavicle -1.7288339767200558e-15 1.7836276955249437e-15
lhumerus -73.0316848936692 -2.169269064835957 95.30270791980547
lradius 103.10400532453532
lwrist 34.14739810827648
lhand -24.52740276953433 0.9723434164895712
lfingers 7.12502
lthumb 1.9680171915144509 30.943003365968497
rclavicle -1.7288339767200558e-15 1.7836276955249437e-15
rhumerus -43.90700651499882 18.024683766284987 -97.35869862965318
rradius 118.12298525066974
rwrist -8.636705435120254
rhand -19.122987398366696 40.885993069872306
rfingers 7.12502
rthumb 7.186462520883698 11.027993596602528
12
root -0.6602105343912906 19.00157948722894 -20.583786623006205 3.505402090972502 4.518610538887533 -6.2807271735928385
lfemur -31.118592206980246 -4.765290157574091 -15.715707831790695
ltibia 27.690609197048214
lfoot 3.8395472000876083 -6.137241522410464
ltoes -22.70448757999845
rfemur 11.934986440903469 8.299043872990959 35.27768961975834
rtibia 41.737507741168315
rfoot 25.532985229655637 -6.532859474983464
rtoes 21.25718781404829
lowerback 12.50101659824326 2.2644212373281247 6.214607663138796
upperback -2.4635854870166165 4.218599977369645 2.0634784011732763
thorax -9.410285104479016 1.7499104914475394 -2.1283504148256625
lowerneck -17.78701583878193 -5.53834567321938 -1.8250135406728516
upperneck 17.252678478320846 -7.449426536578848 1.6077199912651694
head 8.424962705007593 -3.4663050675276597 -0.08673197672432353
lclavicle -1.7288340233481781e-15 1.7836277300995974e-15
lhumerus -73.39038502227504 -1.8815794517005155 95.57200700359297
lradius 103.34400546079965
lwrist 33.8901989246815
lhand -23.89160632563581 0.9117195607857111
lfingers 7.12502
lthumb 2.5820236856186662 30.875803610132827
rclavicle -1.7288340233481781e-15 1.7836277300995974e-15
rhumerus -44.68380601865936 19.05668205840306 -98.23769636511392
rradius 117.97398494472145
rwrist -7.988107811478337
rhand -18.666189845999455 41.658588227013894
rfingers 7.12502
rthumb 7.62739027121056 11.816088573424079
13
root -0.6536317121287974 18.967480046275135 -19.54438920909577 3.195473679843439 4.618470263654754 -5.999587976961685
lfemur -29.69459301418273 -5.821847587672947 -16.008207372880864
ltibia 22.89921129948575
lfoot 4.568336791703789 -5.878371864768706
ltoes -17.21459361401783
rfemur 11.024187706769727 8.42461352417785 35.28108984628605
rtibia 48.19800589753961
rfoot 24.21678770960051 -8.046627195974958
rtoes 21.311688043993225
lowerback 12.300317788835919 2.25668125836301 5.5160995727525295
upperback -2.648473536802927 4.103030419181694 2.1650376324152854
thorax -9.558403072206417 1.7303007225283853 -1.6030020037812842
lowerneck -15.77972782252747 -5.464906124147699 -1.9001622854521691
upperneck 15.830587092366022 -7.340477247131625 1.7187189895477375
head 7.605152672236279 -3.4499552549364916 0.05514471920105435
lclavicle -1.7288340775281458e-15 1.7836276802475664e-15
lhumerus -74.09008461462213 -2.044289077608111 96.39850419353768
lradius 103.50600531717457
lwrist 33.88979891048536
lhand -23.819606681685027 0.5963496528590493
lfingers 7.12502
lthumb 2.6515533631856854 30.559604711096952
rclavicle -1.7288340775281458e-15 1.7836276802475664e-15
rhumerus -46.37820433818679 19.38938102783495 -99.13909417166494
rradius 117.32298610103776
rwrist -7.597429255015161
rhand -18.219792052946307 41.620788422762644
rfingers 7.12502
rthumb 8.058177976988938 11.794388647117984
